<mxfile host="app.diagrams.net" modified="2023-08-22T13:44:17.951Z" agent="Mozilla/5.0 (X11; Ubuntu; Linux x86_64; rv:109.0) Gecko/20100101 Firefox/116.0" etag="xytsXgBl1-HVvdjJId3_" version="21.2.7" type="github">
  <diagram name="Page-1" id="SqnJS9L8xjwoTWoNPR0q">
    <mxGraphModel dx="1430" dy="787" grid="1" gridSize="10" guides="1" tooltips="1" connect="1" arrows="1" fold="1" page="1" pageScale="1" pageWidth="850" pageHeight="1100" math="0" shadow="0">
      <root>
        <mxCell id="0" />
        <mxCell id="1" parent="0" />
        <mxCell id="NecmchMei4JnB6V2mnaV-1" value="RenkuLab" style="rounded=1;whiteSpace=wrap;html=1;" parent="1" vertex="1">
          <mxGeometry x="620" y="410" width="120" height="60" as="geometry" />
        </mxCell>
        <mxCell id="NecmchMei4JnB6V2mnaV-2" value="Gitlab." style="rounded=1;whiteSpace=wrap;html=1;" parent="1" vertex="1">
          <mxGeometry x="470" y="620" width="120" height="60" as="geometry" />
        </mxCell>
        <mxCell id="NecmchMei4JnB6V2mnaV-4" value="Transients" style="rounded=1;whiteSpace=wrap;html=1;" parent="1" vertex="1">
          <mxGeometry x="150" y="490" width="120" height="60" as="geometry" />
        </mxCell>
        <mxCell id="NecmchMei4JnB6V2mnaV-6" value="&lt;div&gt;&lt;br&gt;&lt;/div&gt;&lt;div&gt;&lt;br&gt;&lt;/div&gt;&lt;div&gt;&lt;br&gt;dispatcher&lt;/div&gt;" style="rounded=1;whiteSpace=wrap;html=1;" parent="1" vertex="1">
          <mxGeometry x="270" y="150" width="130" height="60" as="geometry" />
        </mxCell>
        <mxCell id="NecmchMei4JnB6V2mnaV-9" value="&lt;div&gt;JupyterHub&lt;/div&gt;" style="rounded=1;whiteSpace=wrap;html=1;" parent="1" vertex="1">
          <mxGeometry x="630" y="490" width="120" height="60" as="geometry" />
        </mxCell>
        <mxCell id="NRR4bRWO2TPeIxsoDO97-1" value="Paper parsing" style="rounded=1;whiteSpace=wrap;html=1;" parent="1" vertex="1">
          <mxGeometry x="150" y="340" width="120" height="60" as="geometry" />
        </mxCell>
        <mxCell id="Kat-w21vFC84Cf0yZook-1" value="" style="shape=image;verticalLabelPosition=bottom;labelBackgroundColor=default;verticalAlign=top;aspect=fixed;imageAspect=0;image=https://www.astro.unige.ch/mmoda/sites/all/themes/bootstrap_mmoda/logo.png;" vertex="1" parent="1">
          <mxGeometry x="285.65" y="160" width="98.69" height="30" as="geometry" />
        </mxCell>
        <mxCell id="Kat-w21vFC84Cf0yZook-3" value="" style="shape=image;verticalLabelPosition=bottom;labelBackgroundColor=default;verticalAlign=top;aspect=fixed;imageAspect=0;image=https://www.astro.unige.ch/mmoda/sites/all/themes/bootstrap_mmoda/logo-fac-sciences.png;" vertex="1" parent="1">
          <mxGeometry x="374.09999999999997" y="200" width="95.9" height="30" as="geometry" />
        </mxCell>
        <mxCell id="Kat-w21vFC84Cf0yZook-4" value="&lt;div&gt;&lt;br&gt;&lt;/div&gt;&lt;div&gt;&lt;br&gt;&lt;/div&gt;&lt;div&gt;&lt;br&gt;dispatcher&lt;/div&gt;" style="rounded=1;whiteSpace=wrap;html=1;" vertex="1" parent="1">
          <mxGeometry x="560" y="160" width="130" height="60" as="geometry" />
        </mxCell>
        <mxCell id="Kat-w21vFC84Cf0yZook-5" value="" style="shape=image;verticalLabelPosition=bottom;labelBackgroundColor=default;verticalAlign=top;aspect=fixed;imageAspect=0;image=https://www.astro.unige.ch/mmoda/sites/all/themes/bootstrap_mmoda/logo.png;" vertex="1" parent="1">
          <mxGeometry x="575.65" y="170" width="98.69" height="30" as="geometry" />
        </mxCell>
        <mxCell id="Kat-w21vFC84Cf0yZook-7" value="" style="shape=image;verticalLabelPosition=bottom;labelBackgroundColor=default;verticalAlign=top;aspect=fixed;imageAspect=0;image=https://www.astro.unige.ch/mmoda/sites/all/themes/bootstrap_mmoda/logo-apc.png;" vertex="1" parent="1">
          <mxGeometry x="662.26" y="200" width="35.48" height="50" as="geometry" />
        </mxCell>
        <mxCell id="Kat-w21vFC84Cf0yZook-8" value="Paper generation" style="rounded=1;whiteSpace=wrap;html=1;" vertex="1" parent="1">
          <mxGeometry x="390" y="450" width="120" height="60" as="geometry" />
        </mxCell>
        <mxCell id="Kat-w21vFC84Cf0yZook-9" value="ODA Bot" style="rounded=1;whiteSpace=wrap;html=1;" vertex="1" parent="1">
          <mxGeometry x="570" y="300" width="120" height="60" as="geometry" />
        </mxCell>
      </root>
    </mxGraphModel>
  </diagram>
</mxfile>
